<?xml version="1.0" encoding="utf-8"?>
<!-- Generator: Adobe Illustrator 21.1.0, SVG Export Plug-In . SVG Version: 6.00 Build 0)  -->
<svg version="1.1" id="Layer_1" xmlns="http://www.w3.org/2000/svg" xmlns:xlink="http://www.w3.org/1999/xlink" x="0px" y="0px"
	 viewBox="0 0 379.8 379.8" enable-background="new 0 0 379.8 379.8" xml:space="preserve">
<path fill="none" stroke="#FF0000" stroke-width="0.1" stroke-miterlimit="10" d="M343,379.8H36.8C16.6,379.8,0,363.3,0,343V36.9
	C0,16.6,16.6,0,36.8,0H343c20.3,0,36.9,16.6,36.9,36.9V343C379.8,363.3,363.3,379.8,343,379.8z"/>
<g>
	<rect x="89.3" y="89.3" fill="none" stroke="#FF0000" stroke-width="0.1" stroke-miterlimit="10" width="22.7" height="22.7"/>
	<rect x="114.8" y="89.3" fill="none" stroke="#FF0000" stroke-width="0.1" stroke-miterlimit="10" width="22.7" height="22.7"/>
	<rect x="140.3" y="89.3" fill="none" stroke="#FF0000" stroke-width="0.1" stroke-miterlimit="10" width="22.7" height="22.7"/>
	<rect x="165.8" y="89.3" fill="none" stroke="#FF0000" stroke-width="0.1" stroke-miterlimit="10" width="22.7" height="22.7"/>
	<rect x="191.3" y="89.3" fill="none" stroke="#FF0000" stroke-width="0.1" stroke-miterlimit="10" width="22.7" height="22.7"/>
	<rect x="216.8" y="89.3" fill="none" stroke="#FF0000" stroke-width="0.1" stroke-miterlimit="10" width="22.7" height="22.7"/>
	<rect x="242.4" y="89.3" fill="none" stroke="#FF0000" stroke-width="0.1" stroke-miterlimit="10" width="22.7" height="22.7"/>
	<rect x="267.9" y="89.3" fill="none" stroke="#FF0000" stroke-width="0.1" stroke-miterlimit="10" width="22.7" height="22.7"/>
	<rect x="89.3" y="114.8" fill="none" stroke="#FF0000" stroke-width="0.1" stroke-miterlimit="10" width="22.7" height="22.7"/>
	<rect x="114.8" y="114.8" fill="none" stroke="#FF0000" stroke-width="0.1" stroke-miterlimit="10" width="22.7" height="22.7"/>
	<rect x="140.3" y="114.8" fill="none" stroke="#FF0000" stroke-width="0.1" stroke-miterlimit="10" width="22.7" height="22.7"/>
	<rect x="165.8" y="114.8" fill="none" stroke="#FF0000" stroke-width="0.1" stroke-miterlimit="10" width="22.7" height="22.7"/>
	<rect x="191.3" y="114.8" fill="none" stroke="#FF0000" stroke-width="0.1" stroke-miterlimit="10" width="22.7" height="22.7"/>
	<rect x="216.8" y="114.8" fill="none" stroke="#FF0000" stroke-width="0.1" stroke-miterlimit="10" width="22.7" height="22.7"/>
	<rect x="242.4" y="114.8" fill="none" stroke="#FF0000" stroke-width="0.1" stroke-miterlimit="10" width="22.7" height="22.7"/>
	<rect x="267.9" y="114.8" fill="none" stroke="#FF0000" stroke-width="0.1" stroke-miterlimit="10" width="22.7" height="22.7"/>
	<rect x="89.3" y="140.3" fill="none" stroke="#FF0000" stroke-width="0.1" stroke-miterlimit="10" width="22.7" height="22.7"/>
	<rect x="114.8" y="140.3" fill="none" stroke="#FF0000" stroke-width="0.1" stroke-miterlimit="10" width="22.7" height="22.7"/>
	<rect x="140.3" y="140.3" fill="none" stroke="#FF0000" stroke-width="0.1" stroke-miterlimit="10" width="22.7" height="22.7"/>
	<rect x="165.8" y="140.3" fill="none" stroke="#FF0000" stroke-width="0.1" stroke-miterlimit="10" width="22.7" height="22.7"/>
	<rect x="191.3" y="140.3" fill="none" stroke="#FF0000" stroke-width="0.1" stroke-miterlimit="10" width="22.7" height="22.7"/>
	<rect x="216.8" y="140.3" fill="none" stroke="#FF0000" stroke-width="0.1" stroke-miterlimit="10" width="22.7" height="22.7"/>
	<rect x="242.4" y="140.3" fill="none" stroke="#FF0000" stroke-width="0.1" stroke-miterlimit="10" width="22.7" height="22.7"/>
	<rect x="267.9" y="140.3" fill="none" stroke="#FF0000" stroke-width="0.1" stroke-miterlimit="10" width="22.7" height="22.7"/>
	<rect x="89.3" y="165.8" fill="none" stroke="#FF0000" stroke-width="0.1" stroke-miterlimit="10" width="22.7" height="22.7"/>
	<rect x="114.8" y="165.8" fill="none" stroke="#FF0000" stroke-width="0.1" stroke-miterlimit="10" width="22.7" height="22.7"/>
	<rect x="140.3" y="165.8" fill="none" stroke="#FF0000" stroke-width="0.1" stroke-miterlimit="10" width="22.7" height="22.7"/>
	<rect x="165.8" y="165.8" fill="none" stroke="#FF0000" stroke-width="0.1" stroke-miterlimit="10" width="22.7" height="22.7"/>
	<rect x="191.3" y="165.8" fill="none" stroke="#FF0000" stroke-width="0.1" stroke-miterlimit="10" width="22.7" height="22.7"/>
	<rect x="216.8" y="165.8" fill="none" stroke="#FF0000" stroke-width="0.1" stroke-miterlimit="10" width="22.7" height="22.7"/>
	<rect x="242.4" y="165.8" fill="none" stroke="#FF0000" stroke-width="0.1" stroke-miterlimit="10" width="22.7" height="22.7"/>
	<rect x="267.9" y="165.8" fill="none" stroke="#FF0000" stroke-width="0.1" stroke-miterlimit="10" width="22.7" height="22.7"/>
	<rect x="89.3" y="191.3" fill="none" stroke="#FF0000" stroke-width="0.1" stroke-miterlimit="10" width="22.7" height="22.7"/>
	<rect x="114.8" y="191.3" fill="none" stroke="#FF0000" stroke-width="0.1" stroke-miterlimit="10" width="22.7" height="22.7"/>
	<rect x="140.3" y="191.3" fill="none" stroke="#FF0000" stroke-width="0.1" stroke-miterlimit="10" width="22.7" height="22.7"/>
	<rect x="165.8" y="191.3" fill="none" stroke="#FF0000" stroke-width="0.1" stroke-miterlimit="10" width="22.7" height="22.7"/>
	<rect x="191.3" y="191.3" fill="none" stroke="#FF0000" stroke-width="0.1" stroke-miterlimit="10" width="22.7" height="22.7"/>
	<rect x="216.8" y="191.3" fill="none" stroke="#FF0000" stroke-width="0.1" stroke-miterlimit="10" width="22.7" height="22.7"/>
	<rect x="242.4" y="191.3" fill="none" stroke="#FF0000" stroke-width="0.1" stroke-miterlimit="10" width="22.7" height="22.7"/>
	<rect x="267.9" y="191.3" fill="none" stroke="#FF0000" stroke-width="0.1" stroke-miterlimit="10" width="22.7" height="22.7"/>
	<rect x="89.3" y="216.9" fill="none" stroke="#FF0000" stroke-width="0.1" stroke-miterlimit="10" width="22.7" height="22.7"/>
	<rect x="114.8" y="216.9" fill="none" stroke="#FF0000" stroke-width="0.1" stroke-miterlimit="10" width="22.7" height="22.7"/>
	<rect x="140.3" y="216.9" fill="none" stroke="#FF0000" stroke-width="0.1" stroke-miterlimit="10" width="22.7" height="22.7"/>
	<rect x="165.8" y="216.9" fill="none" stroke="#FF0000" stroke-width="0.1" stroke-miterlimit="10" width="22.7" height="22.7"/>
	<rect x="191.3" y="216.9" fill="none" stroke="#FF0000" stroke-width="0.1" stroke-miterlimit="10" width="22.7" height="22.7"/>
	<rect x="216.8" y="216.9" fill="none" stroke="#FF0000" stroke-width="0.1" stroke-miterlimit="10" width="22.7" height="22.7"/>
	<rect x="242.4" y="216.9" fill="none" stroke="#FF0000" stroke-width="0.1" stroke-miterlimit="10" width="22.7" height="22.7"/>
	<rect x="267.9" y="216.9" fill="none" stroke="#FF0000" stroke-width="0.1" stroke-miterlimit="10" width="22.7" height="22.7"/>
	<rect x="89.3" y="242.4" fill="none" stroke="#FF0000" stroke-width="0.1" stroke-miterlimit="10" width="22.7" height="22.7"/>
	<rect x="114.8" y="242.4" fill="none" stroke="#FF0000" stroke-width="0.1" stroke-miterlimit="10" width="22.7" height="22.7"/>
	<rect x="140.3" y="242.4" fill="none" stroke="#FF0000" stroke-width="0.1" stroke-miterlimit="10" width="22.7" height="22.7"/>
	<rect x="165.8" y="242.4" fill="none" stroke="#FF0000" stroke-width="0.1" stroke-miterlimit="10" width="22.7" height="22.7"/>
	<rect x="191.3" y="242.4" fill="none" stroke="#FF0000" stroke-width="0.1" stroke-miterlimit="10" width="22.7" height="22.7"/>
	<rect x="216.8" y="242.4" fill="none" stroke="#FF0000" stroke-width="0.1" stroke-miterlimit="10" width="22.7" height="22.7"/>
	<rect x="242.4" y="242.4" fill="none" stroke="#FF0000" stroke-width="0.1" stroke-miterlimit="10" width="22.7" height="22.7"/>
	<rect x="267.9" y="242.4" fill="none" stroke="#FF0000" stroke-width="0.1" stroke-miterlimit="10" width="22.7" height="22.7"/>
	<rect x="89.3" y="267.9" fill="none" stroke="#FF0000" stroke-width="0.1" stroke-miterlimit="10" width="22.7" height="22.7"/>
	<rect x="114.8" y="267.9" fill="none" stroke="#FF0000" stroke-width="0.1" stroke-miterlimit="10" width="22.7" height="22.7"/>
	<rect x="140.3" y="267.9" fill="none" stroke="#FF0000" stroke-width="0.1" stroke-miterlimit="10" width="22.7" height="22.7"/>
	<rect x="165.8" y="267.9" fill="none" stroke="#FF0000" stroke-width="0.1" stroke-miterlimit="10" width="22.7" height="22.7"/>
	<rect x="191.3" y="267.9" fill="none" stroke="#FF0000" stroke-width="0.1" stroke-miterlimit="10" width="22.7" height="22.7"/>
	<rect x="216.8" y="267.9" fill="none" stroke="#FF0000" stroke-width="0.1" stroke-miterlimit="10" width="22.7" height="22.7"/>
	<rect x="242.4" y="267.9" fill="none" stroke="#FF0000" stroke-width="0.1" stroke-miterlimit="10" width="22.7" height="22.7"/>
	<rect x="267.9" y="267.9" fill="none" stroke="#FF0000" stroke-width="0.1" stroke-miterlimit="10" width="22.7" height="22.7"/>
</g>
</svg>
